<svg id="レイヤー_1" data-name="レイヤー 1" xmlns="http://www.w3.org/2000/svg" viewBox="0 0 550 551.37"><defs><style>.cls-1{fill:#fff;}</style></defs><title>アートボード 1</title><path class="cls-1" d="M443.33,68.66l-.54-.5a7.26,7.26,0,0,1-2.28-3.1,2.83,2.83,0,0,1,1-2.53,3.08,3.08,0,0,1,2.29-1.18,3.84,3.84,0,0,1,2.45,1.22L447.7,64l6.89,6.43c1.82,1.69,2.81,2.94,3,3.74a2.85,2.85,0,0,1-1,2.52,2.62,2.62,0,0,1-2.57,1c-.91-.19-2.18-1.05-3.82-2.58l-1.44-1.35L432.13,91.56a38,38,0,0,0-4.56,5.59,13.61,13.61,0,0,0-1.65,4.09,11.07,11.07,0,0,0,.38,6.14,13.41,13.41,0,0,0,3.62,5.44q4.78,4.5,9.6,3.74t10.65-7l17.22-18.44-1.77-1.66c-1.74-1.62-2.74-2.87-3-3.76a2.67,2.67,0,0,1,.82-2.68,2.92,2.92,0,0,1,2.43-1.17c.78.1,1.9.84,3.37,2.2l7.39,6.9,1.61,1.5a3.49,3.49,0,0,1,1.28,2.3,3.13,3.13,0,0,1-1,2.33,2.86,2.86,0,0,1-2.44,1.13,6.67,6.67,0,0,1-3.17-2l-.47-.44L454.51,115q-7.4,7.92-14.71,8.47t-14.64-6.27q-6.61-6.17-6.86-13.8t6-14.33Z"/><path class="cls-1" d="M456.55,138.42a7.28,7.28,0,0,1,6.09-1.25,9.41,9.41,0,0,1,5.56,4,9.55,9.55,0,0,1,2,6.6,7.85,7.85,0,0,1-9.37,6.62,9.58,9.58,0,0,1-5.55-4.06,9.46,9.46,0,0,1-2-6.57A7.31,7.31,0,0,1,456.55,138.42Z"/><path class="cls-1" d="M503.93,205.48c2.07-.82,3.49-1.13,4.27-1s1.39.87,1.86,2.07a3.33,3.33,0,0,1,.16,2.6,3.45,3.45,0,0,1-2.07,1.71l-1.77.71L492.78,217a3.25,3.25,0,0,1-2.58.09,3.29,3.29,0,0,1-1.71-1.93l-15.06-37.79-.8-2a3.42,3.42,0,0,1-.17-2.61,3.2,3.2,0,0,1,1.94-1.65,2.68,2.68,0,0,1,2.62,0c.65.45,1.41,1.76,2.26,3.91l2.13,5.34,37.26-14.85-2.13-5.34c-.83-2.1-1.17-3.55-1-4.36a2.81,2.81,0,0,1,1.94-1.89,3.25,3.25,0,0,1,2.58-.11,3.93,3.93,0,0,1,1.7,2.18l.72,1.82,7.66,19.21.8,2a3.55,3.55,0,0,1,.19,2.63,3.07,3.07,0,0,1-1.91,1.7,2.78,2.78,0,0,1-2.71,0c-.68-.47-1.45-1.78-2.31-3.94l-2.86-7.16-37.26,14.85,9,22.68Z"/><path class="cls-1" d="M500.36,236.84a7.28,7.28,0,0,1,6,1.68,9.36,9.36,0,0,1,3.11,6.12,9.55,9.55,0,0,1-1.23,6.81,7.29,7.29,0,0,1-5.35,3.26,7.22,7.22,0,0,1-6-1.68A10.79,10.79,0,0,1,495,240.09,7.28,7.28,0,0,1,500.36,236.84Z"/><path class="cls-1" d="M502.65,292.78l-.36,3a7.42,7.42,0,0,1-1.17,3.68,2.62,2.62,0,0,1-2.48.8,3,3,0,0,1-2.39-1.26c-.38-.69-.45-2.11-.18-4.26l1.21-10,.25-2a3.57,3.57,0,0,1,1.11-2.44,3.2,3.2,0,0,1,2.5-.56,2.68,2.68,0,0,1,2.27,1.28,7.3,7.3,0,0,1,.22,3.81l-.1.82,39.82,4.84.09-.73a7.22,7.22,0,0,1,1.17-3.69,2.79,2.79,0,0,1,2.59-.72,3.17,3.17,0,0,1,2.31,1.14,3.81,3.81,0,0,1,.44,2.73l-.23,1.95-1.16,9.49c-.29,2.42-.71,3.92-1.24,4.53a2.91,2.91,0,0,1-2.61.68,2.66,2.66,0,0,1-2.32-1.53,10.56,10.56,0,0,1-.16-4.72l.25-2-15.33-1.86-2.65,21.86,15.33,1.87.38-3.08a6.79,6.79,0,0,1,1.2-3.6A2.68,2.68,0,0,1,544,312a2.8,2.8,0,0,1,2.37,1.31q.56,1.1.08,5.1l-1.1,9-.24,2a3.53,3.53,0,0,1-1.11,2.37,3.13,3.13,0,0,1-2.49.55,2.93,2.93,0,0,1-2.32-1.25,5.82,5.82,0,0,1-.32-3.49l.14-1.09-39.83-4.84-.1.72a7.25,7.25,0,0,1-1.13,3.63,2.69,2.69,0,0,1-2.49.71,2.94,2.94,0,0,1-2.4-1.26c-.38-.69-.42-2.19-.15-4.48l1.14-9.39q.45-3.67,1.26-4.59a2.86,2.86,0,0,1,2.63-.7,2.53,2.53,0,0,1,2.26,1.47,10.54,10.54,0,0,1,.11,4.58l-.26,2.22,18.41,2.24L521.07,295Z"/><path class="cls-1" d="M480.94,376.24c-.88,2.18-1.65,3.51-2.3,3.95a2.65,2.65,0,0,1-2.61,0,2.84,2.84,0,0,1-2-1.86c-.18-.78.18-2.27,1.06-4.45l10.46-25.84.8-2a3.66,3.66,0,0,1,1.69-2,3.13,3.13,0,0,1,2.56.1,2.69,2.69,0,0,1,1.87,1.84c.15.79-.22,2.28-1.11,4.45l-3.9,9.61,37.19,15.05,3.9-9.61c.86-2.14,1.63-3.44,2.32-3.91a2.81,2.81,0,0,1,2.74,0,3.08,3.08,0,0,1,1.92,1.74,3.8,3.8,0,0,1-.26,2.71l-.77,1.91-10.47,25.84-.8,2a3.6,3.6,0,0,1-1.68,2,3.26,3.26,0,0,1-2.56-.12,2.81,2.81,0,0,1-1.94-1.9c-.17-.81.17-2.28,1-4.41l3.89-9.61-37.19-15.05Z"/><path class="cls-1" d="M461.13,409.46l-1.88,2.43a7.43,7.43,0,0,1-2.9,2.59,2.6,2.6,0,0,1-2.54-.58,2.87,2.87,0,0,1-1.38-2.28,6.56,6.56,0,0,1,1.67-3.34l9.6-12.4a3.15,3.15,0,0,1,2.09-1.36,3.37,3.37,0,0,1,2.38.82,2.94,2.94,0,0,1,1.33,2.16,5.1,5.1,0,0,1-1.31,2.84l-.89,1.15-1.78,2.32,31.73,24.54L499,426q2.11-2.73,3.25-3.09a2.88,2.88,0,0,1,2.57.78,3.26,3.26,0,0,1,1.39,2.08,3.16,3.16,0,0,1-.8,2.37l-9.58,12.4a6.66,6.66,0,0,1-2.8,2.47,2.87,2.87,0,0,1-2.56-.76,2.57,2.57,0,0,1-1.2-2.5c.12-.94.89-2.32,2.3-4.15l1.26-1.63-14.34-11.09,2.63,26.22.34-.43.61-.8a5.39,5.39,0,0,1,2.59-2.1,2.85,2.85,0,0,1,2.54.69,3.32,3.32,0,0,1,1.48,2.13,3.64,3.64,0,0,1-1,2.44l-8.26,10.71a2.88,2.88,0,0,1-4.49.58,2.8,2.8,0,0,1-1.3-2.36,7.31,7.31,0,0,1,1.77-3.48l.39-.51-2.31-24.22q-3.08,2.67-8.66,3t-21.69-2.16l-.5.65c-1.17,1.5-2.11,2.37-2.87,2.6a2.75,2.75,0,0,1-2.49-.71A3.31,3.31,0,0,1,436,433.1a3.1,3.1,0,0,1,.79-2.37l2.69-3.48a5.34,5.34,0,0,1,1.55-1.49,3.58,3.58,0,0,1,2-.2q.75.05,10.27,1.5l3.67.57a30.23,30.23,0,0,0,9.7.21,11.49,11.49,0,0,0,6.18-3l-.58-6.83Z"/><path class="cls-1" d="M426.25,440.73l1.72-1.32a3.43,3.43,0,0,1,2.45-.89,3.12,3.12,0,0,1,2.14,1.38,2.69,2.69,0,0,1,.7,2.51c-.25.74-1.32,1.83-3.16,3.27l-2.32,1.79,24.59,31.75,2.32-1.79c1.81-1.4,3.12-2.12,3.94-2.18A2.74,2.74,0,0,1,461,476.6a3.13,3.13,0,0,1,.81,2.43,3.68,3.68,0,0,1-1.57,2.2l-1.63,1.26-29.91,23.17a3,3,0,0,1-2.42.73,3.89,3.89,0,0,1-2.26-1.6l-6.42-8.3a5.5,5.5,0,0,1-1.42-3,3,3,0,0,1,1.4-2.22,3,3,0,0,1,2.64-.8c.79.22,1.86,1.24,3.26,3.05l3.9,5,19.25-14.92-9.21-11.89-9.5,7.36,1.45,1.87a6.1,6.1,0,0,1,1.53,3,2.68,2.68,0,0,1-1.25,2.16,2.43,2.43,0,0,1-2.38.56c-.73-.27-1.77-1.28-3.12-3l-5.08-6.55c-1.36-1.76-2.06-3-2.11-3.77a2.59,2.59,0,0,1,1.25-2.14,2.36,2.36,0,0,1,2.44-.54,9.27,9.27,0,0,1,3,2.88l1,1.24,9.51-7.36L422,451.92l-19.25,14.91,4.41,5.71q2.09,2.7,2.14,3.91a3,3,0,0,1-1.46,2.36,2.89,2.89,0,0,1-2.49.77,5.94,5.94,0,0,1-2.67-2.29l-6.86-8.86A3.36,3.36,0,0,1,395,466a3.12,3.12,0,0,1,1.32-2.1Z"/><path class="cls-1" d="M350.2,491.68a23.51,23.51,0,0,1,4.63-6,19,19,0,0,1,6-3.66,13.88,13.88,0,0,1,18.45,8.33,14.42,14.42,0,0,1,.71,8.07,27.19,27.19,0,0,1-4.19,9.24,28.09,28.09,0,0,1,5.1,4.09,12.3,12.3,0,0,1,2.62,4.06,10.31,10.31,0,0,1-.49,8.7,12.87,12.87,0,0,1-10.63,6.89,28.9,28.9,0,0,1-5-.2l-.4.22c-.15.07-.35.16-.64.27a3.38,3.38,0,0,1-2.38.16,2.42,2.42,0,0,1-1.42-1.52,4.17,4.17,0,0,1,.06-3.07,3.23,3.23,0,0,1,1.78-2.06,10.83,10.83,0,0,1,4,.24,10.35,10.35,0,0,0,5.19-.22,5.49,5.49,0,0,0,3.08-2.65,4.4,4.4,0,0,0,.2-3.73,7.37,7.37,0,0,0-1.81-2.59,33.39,33.39,0,0,0-4.9-3.45l-16-10.11a44.61,44.61,0,0,0,.27,5.75c.39,3.44-.16,5.44-1.65,6l-2.66,1a2.21,2.21,0,0,1-2-.29,3.79,3.79,0,0,1-1.56-2,3.66,3.66,0,0,1-.27-2.42,4.31,4.31,0,0,1,1.79-1.76,41.86,41.86,0,0,1-.29-4.76c0-1.64.08-3.36.24-5.19l-4-2.58-1.06.41a1.68,1.68,0,0,1-1.62-.25,4,4,0,0,1-1.29-1.85,4.77,4.77,0,0,1-.32-2.66,2,2,0,0,1,1.25-1.51l3.61-1.36c.68-.26,1.71.05,3.11,1a3.13,3.13,0,0,0,.51.3Zm5.54,3.46,14.45,9a13.21,13.21,0,0,0,2.32-5.12,8.74,8.74,0,0,0-.44-4.88,8.06,8.06,0,0,0-4.27-4.66,7.74,7.74,0,0,0-6.18-.22,9.12,9.12,0,0,0-3.32,2.16A14.06,14.06,0,0,0,355.74,495.15Z"/><path class="cls-1" d="M292.66,498.52l20.5-1.3a3.3,3.3,0,0,1,2.44.65,3.23,3.23,0,0,1,1,2.34,2.66,2.66,0,0,1-.85,2.47c-.65.48-2.24.79-4.76.95l-1.51.1,2.54,40,1.51-.1c2.34-.15,3.87,0,4.57.4a2.85,2.85,0,0,1,1.16,2.44,2.86,2.86,0,0,1-3,3.38l-21.35,1.36q-9.72.61-15-2.73t-5.75-10.3a11.24,11.24,0,0,1,5.53-10.84,15.58,15.58,0,0,1-7.66-4.37,12.66,12.66,0,0,1-2.9-7.75,13.63,13.63,0,0,1,1.59-7.5,15.81,15.81,0,0,1,5.46-5.83,17.84,17.84,0,0,1,4.89-2.12,42.6,42.6,0,0,1,7.74-1.06Zm9.61,5.66-10.17.64q-8.62.55-12,2.88c-2.28,1.57-3.3,4-3.09,7.23s1.49,5.56,3.82,6.81,6.32,1.69,12,1.34l10.63-.68Zm1.51,23.68-9.58.61q-6.52.41-9.54,2.62a6.82,6.82,0,0,0-2.74,6.38,7.13,7.13,0,0,0,3.24,5.89c2,1.28,4.75,1.82,8.29,1.59l11.37-.73Z"/><path class="cls-1" d="M229.57,541.64l6.56,1.31a7.4,7.4,0,0,1,3.69,1.48,2.7,2.7,0,0,1,.61,2.65,2.85,2.85,0,0,1-1.46,2.27c-.74.33-2.54.2-5.41-.37l-12.81-2.56a6.28,6.28,0,0,1-3.23-1.31,5.52,5.52,0,0,1-1.12-2.65l-9.06-46.16-.77-.16a6.08,6.08,0,0,1-3.19-1.32,2.77,2.77,0,0,1-.44-2.54,3.06,3.06,0,0,1,1.35-2.3,5.53,5.53,0,0,1,3.33,0l12.23,2.45c2.28.45,3.7,1,4.25,1.56a2.85,2.85,0,0,1,.47,2.66,2.61,2.61,0,0,1-1.52,2.13,8.16,8.16,0,0,1-4.13-.12l-4.18-.84L217,509l22.84,4.58,6-9.63-4.37-.87a8.45,8.45,0,0,1-3.92-1.48,2.61,2.61,0,0,1-.61-2.56,2.83,2.83,0,0,1,1.47-2.27c.73-.33,2.2-.27,4.38.17l11.83,2.36c1.93.38,3.15.86,3.7,1.45a2.91,2.91,0,0,1,.45,2.66,2.75,2.75,0,0,1-1.42,2.18,7.18,7.18,0,0,1-3.77-.08l-.86-.17ZM236.48,519l-18.39-3.67,5,25.07Z"/><path class="cls-1" d="M142.84,516.58a3.25,3.25,0,0,1-1.89,1,4.74,4.74,0,0,1-2.36-.6,3.06,3.06,0,0,1-1.79-1.76,5.43,5.43,0,0,1,.84-3.26q1.9-3.93,3.47-7.34c1-2.29,1.5-3.27,1.35-3,.61-1.26,1.24-2,1.91-2.22a3.59,3.59,0,0,1,2.66.47c1.8.88,2.36,2.71,1.7,5.49-.18.83-.3,1.48-.4,1.94A9.23,9.23,0,0,0,149.7,514a14.12,14.12,0,0,0,6,5.3,16.28,16.28,0,0,0,14.24.51q6.92-3,11.18-11.77T183.47,492A16.51,16.51,0,0,0,174.18,481a21,21,0,0,0-5.17-1.72,24.07,24.07,0,0,0-5.83-.39,32.43,32.43,0,0,0-4,.4,6.78,6.78,0,0,1-3.41,0,3.4,3.4,0,0,1-1.76-1.87,2.94,2.94,0,0,1,.1-2.44,3.8,3.8,0,0,1,2.09-1.83,17.59,17.59,0,0,1,4.92-.94,30.36,30.36,0,0,1,8.53.16,29.12,29.12,0,0,1,7.9,2.55A24.75,24.75,0,0,1,191,490.13q3.22,10.23-2.08,21.11t-15.45,14.63a24.72,24.72,0,0,1-20.37-1.11,28.12,28.12,0,0,1-5.25-3.35A42.36,42.36,0,0,1,142.84,516.58Z"/><path class="cls-1" d="M134.47,456.81l-2.33-2a7.41,7.41,0,0,1-2.44-3,2.59,2.59,0,0,1,.69-2.5,3,3,0,0,1,2.37-1.27,6.69,6.69,0,0,1,3.24,1.86l11.91,10.2a3.08,3.08,0,0,1,1.25,2.15,3.2,3.2,0,0,1-.93,2.33,2.81,2.81,0,0,1-2.22,1.21,4.92,4.92,0,0,1-2.77-1.44l-1.12-.95-2.22-1.9-26.07,30.42L116,493.8c1.77,1.52,2.74,2.64,2.91,3.41a2.9,2.9,0,0,1-.9,2.54,3.31,3.31,0,0,1-2.17,1.29,3.13,3.13,0,0,1-2.32-.9l-11.92-10.21A6.71,6.71,0,0,1,99.32,487a3,3,0,0,1,.9-2.52,2.67,2.67,0,0,1,2.57-1.1,10.52,10.52,0,0,1,4,2.51l1.57,1.35,11.78-13.75-26.3,1.3.42.35.76.66a5.52,5.52,0,0,1,2,2.69,2.91,2.91,0,0,1-.83,2.53A3.27,3.27,0,0,1,94,482.38a3.53,3.53,0,0,1-2.39-1.08l-10.27-8.8A3.14,3.14,0,0,1,80,470.33,3.22,3.22,0,0,1,81,468a2.77,2.77,0,0,1,2.44-1.18,7.31,7.31,0,0,1,3.39,1.94l.49.42,24.31-1.06c-1.67-2.14-2.55-5.08-2.61-8.8s1-10.91,3.23-21.55l-.63-.53a7.35,7.35,0,0,1-2.46-3,2.7,2.7,0,0,1,.83-2.45,3.24,3.24,0,0,1,2.16-1.28,3.16,3.16,0,0,1,2.33.91l3.35,2.87a5.54,5.54,0,0,1,1.42,1.63,3.7,3.7,0,0,1,.1,2q-.09.74-2,10.17l-.75,3.62a30.12,30.12,0,0,0-.68,9.69,11.46,11.46,0,0,0,2.69,6.32l6.84-.23Z"/><path class="cls-1" d="M85.41,403.18a5.79,5.79,0,0,1-1.21-3.11,2.74,2.74,0,0,1,1.38-2.13,2.91,2.91,0,0,1,2.61-.59A6.65,6.65,0,0,1,90.81,400l12.51,18.6A3.15,3.15,0,0,1,104,421a3.09,3.09,0,0,1-1.49,2,3,3,0,0,1-2.36.62,3.5,3.5,0,0,1-2-1.66l-3.32-4.91L61.5,439.47l1.8,2.66c1.49,2.25,2.26,3.76,2.24,4.56A2.88,2.88,0,0,1,64,448.93a2.89,2.89,0,0,1-4.47-.88L47.68,430.43q-6.22-9.26-6-16.4t7-11.68q6.76-4.55,13.39-2.08T75,412l4.46,6.65,11.28-7.57Zm-27.93,30.3L74.59,422l-4.77-7.11q-4-6-8.17-7.51t-8.44,1.37Q49,411.57,48.83,416c-.08,2.94,1.22,6.41,3.88,10.37Z"/><path class="cls-1" d="M26.66,377.22,29,383.51a7.58,7.58,0,0,1,.67,3.94,2.74,2.74,0,0,1-1.92,1.91,2.91,2.91,0,0,1-2.71,0c-.66-.46-1.51-2.07-2.52-4.82L18,372.22a6.25,6.25,0,0,1-.59-3.43,5.61,5.61,0,0,1,1.67-2.35l34.59-31.91-.27-.73a6.1,6.1,0,0,1-.55-3.42,2.73,2.73,0,0,1,1.93-1.68,3,3,0,0,1,2.66-.06,5.46,5.46,0,0,1,1.78,2.82l4.33,11.69q1.21,3.28.9,4.44a2.85,2.85,0,0,1-2,1.8,2.61,2.61,0,0,1-2.6-.19,8.06,8.06,0,0,1-2.05-3.57l-1.49-4-8.4,7.85,8.08,21.85,11.31,0-1.54-4.16a8.53,8.53,0,0,1-.78-4.1,2.59,2.59,0,0,1,1.85-1.86,2.86,2.86,0,0,1,2.7.06c.65.46,1.37,1.73,2.14,3.82l4.18,11.3c.67,1.83.92,3.13.7,3.9a2.88,2.88,0,0,1-2,1.77A2.71,2.71,0,0,1,71.9,382,7.19,7.19,0,0,1,70,378.75l-.3-.82Zm22.94-6-6.5-17.6L24.39,371.06Z"/><path class="cls-1" d="M2.56,290.29a3.22,3.22,0,0,1-1.82-1.1A4.84,4.84,0,0,1,0,286.87a3.08,3.08,0,0,1,.56-2.45,5.56,5.56,0,0,1,3.23-1q4.34-.43,8.08-.88c2.49-.31,3.58-.45,3.25-.42a4,4,0,0,1,2.89.45,3.59,3.59,0,0,1,1,2.52c.2,2-1.06,3.45-3.77,4.32-.81.29-1.44.52-1.86.69a9.14,9.14,0,0,0-5,4.69A14.14,14.14,0,0,0,7,302.71a16.28,16.28,0,0,0,7,12.41q6.23,4.33,15.88,3.36T44.84,312a16.56,16.56,0,0,0,4.45-13.64A20.74,20.74,0,0,0,48,293.07a24.21,24.21,0,0,0-2.72-5.17,29.39,29.39,0,0,0-2.43-3.17,7.08,7.08,0,0,1-1.78-2.91,3.43,3.43,0,0,1,.68-2.49,2.92,2.92,0,0,1,2.13-1.2,3.87,3.87,0,0,1,2.66.82,18.2,18.2,0,0,1,3.38,3.7A30.84,30.84,0,0,1,54.29,290a28.91,28.91,0,0,1,2,8.05,24.73,24.73,0,0,1-5.91,19.39q-7,8.1-19.07,9.29t-20.55-5.49A24.8,24.8,0,0,1,1,303.31a28.46,28.46,0,0,1,.11-6.21A43.23,43.23,0,0,1,2.56,290.29Z"/><path class="cls-1" d="M49,251.77l.48-3a7.3,7.3,0,0,1,1.29-3.65,2.59,2.59,0,0,1,2.51-.7,2.9,2.9,0,0,1,2.33,1.33,6.65,6.65,0,0,1,.14,3.71L53.38,264.9a3.18,3.18,0,0,1-1.18,2.21,3.34,3.34,0,0,1-2.49.42,2.89,2.89,0,0,1-2.21-1.26,4.94,4.94,0,0,1-.23-3.11l.23-1.44.46-2.9-39.59-6.2-.46,2.89c-.37,2.29-.81,3.71-1.37,4.28a2.87,2.87,0,0,1-2.62.56,3.27,3.27,0,0,1-2.23-1.16,3.1,3.1,0,0,1-.45-2.45l2.42-15.46a6.5,6.5,0,0,1,1.27-3.5,2.91,2.91,0,0,1,2.61-.57,2.65,2.65,0,0,1,2.27,1.61,10.32,10.32,0,0,1,0,4.72l-.32,2,17.89,2.81L12.43,226.62l-.09.55-.16,1a5.38,5.38,0,0,1-1.25,3.09,2.85,2.85,0,0,1-2.57.63A3.32,3.32,0,0,1,6,230.72a3.63,3.63,0,0,1-.33-2.6L7.8,214.76A3.26,3.26,0,0,1,9,212.52a3.25,3.25,0,0,1,2.47-.44,2.78,2.78,0,0,1,2.28,1.45,7.34,7.34,0,0,1,.12,3.9l-.1.63,13.69,20.11q1.41-3.81,6.11-6.84t20-8.56l.13-.82A7.36,7.36,0,0,1,55,218.29a2.77,2.77,0,0,1,2.54-.58,3.26,3.26,0,0,1,2.24,1.17,3.11,3.11,0,0,1,.46,2.46l-.67,4.35a5.64,5.64,0,0,1-.64,2.06,3.78,3.78,0,0,1-1.63,1.11q-.69.3-9.71,3.63L44,233.76a30.74,30.74,0,0,0-8.62,4.5,11.53,11.53,0,0,0-4,5.6l3.79,5.74Z"/><path class="cls-1" d="M72.14,174.33c.94-2.16,1.74-3.45,2.4-3.9a2.72,2.72,0,0,1,2.62.07,2.88,2.88,0,0,1,1.91,1.91c.17.79-.23,2.26-1.16,4.41l-11.09,25.5-.85,2a3.62,3.62,0,0,1-1.74,2,3.16,3.16,0,0,1-2.55-.16,2.7,2.7,0,0,1-1.83-1.9q-.19-1.18,1.22-4.42l4.13-9.5-36.76-16-4.14,9.5c-.9,2.1-1.71,3.38-2.42,3.84a2.77,2.77,0,0,1-2.73,0,3.09,3.09,0,0,1-1.89-1.77,3.85,3.85,0,0,1,.33-2.7l.82-1.89,11.09-25.5.86-2a3.5,3.5,0,0,1,1.73-2,3.14,3.14,0,0,1,2.55.18,2.82,2.82,0,0,1,1.9,1.95c.13.81-.24,2.27-1.16,4.37l-4.13,9.5,36.78,16Z"/><path class="cls-1" d="M89.66,145.61l1.46-1.82,2.13-2.66a6.47,6.47,0,0,1,2.76-2.3,2.62,2.62,0,0,1,2.5.66,2.91,2.91,0,0,1,1.37,2.34q-.09,1.21-2.18,3.82l-7.16,8.95-1.35,1.7A3.51,3.51,0,0,1,87,157.72a3.24,3.24,0,0,1-2.4-.86,2.73,2.73,0,0,1-1.31-2.25,7.12,7.12,0,0,1,1.77-3.27l.55-.67L54.32,125.6l-.71.9q-2.42,3-3.81,3.62a3,3,0,0,1-3.92-2.89,7.32,7.32,0,0,1,1.79-3.42c.71-1,1.26-1.73,1.64-2.2L52,118.24a6.63,6.63,0,0,1,2.21-2,6.68,6.68,0,0,1,3.1-.07L102,122.32l-27.48-22-1.11,1.39-2,2.54a6.43,6.43,0,0,1-2.87,2.32,2.72,2.72,0,0,1-2.58-.62,2.9,2.9,0,0,1-1.36-2.33q.07-1.18,2-3.59L73.4,91.5l1.39-1.73a3.27,3.27,0,0,1,2.15-1.41,3.18,3.18,0,0,1,2.37.87,2.86,2.86,0,0,1,1.33,2.33,6.57,6.57,0,0,1-1.71,3.26l-.35.43,35,28a2.14,2.14,0,0,1,1,1.58,5.39,5.39,0,0,1-1.41,2.55,9.21,9.21,0,0,1-1.92,2,7.06,7.06,0,0,1-2.89-.05l-47.1-6.48Z"/><path class="cls-1" d="M151,85.3l-6.35-8.48-9.09,6.82a2.7,2.7,0,0,1-2.07.64,3.13,3.13,0,0,1-1.85-1.35,3.41,3.41,0,0,1-.92-2.22,3.18,3.18,0,0,1,1.46-1.89L148,67a2.11,2.11,0,0,1,1.86-.47,3.51,3.51,0,0,1,1.78,1.43,2.84,2.84,0,0,1,.76,2.27,4.33,4.33,0,0,1-1.78,2.12l-.49.36,7.39,9.87.64.85A3.74,3.74,0,0,1,159,84.9a2.88,2.88,0,0,1-.34,1.39,27.28,27.28,0,0,1-4.55,6.62,49.14,49.14,0,0,1-7.47,6.93q-9.84,7.35-20.45,5.8T108.22,94.28q-7.34-9.77-6.18-20.6A24.61,24.61,0,0,1,112.37,56a29.24,29.24,0,0,1,5.42-3.2,40.82,40.82,0,0,1,6.47-2.27,3.26,3.26,0,0,1,0-2.1,3.86,3.86,0,0,1,1.36-1.66c1.15-.86,2.17-1.1,3-.71s2.21,1.76,4,4.16l3.62,4.84a4.61,4.61,0,0,1,1.2,2.9,3.49,3.49,0,0,1-1.63,2.31c-1.28,1-2.76.88-4.45-.21-.52-.31-.95-.53-1.25-.68A12.52,12.52,0,0,0,123,58a13.79,13.79,0,0,0-6.95,2.81,16.38,16.38,0,0,0-7,12.48c-.31,5,1.49,10.17,5.4,15.39q6.05,8.08,14,9.62t15.1-3.86a22.49,22.49,0,0,0,3.91-3.76A34.74,34.74,0,0,0,151,85.3Z"/><path class="cls-1" d="M223.9,18.25a.65.65,0,0,1,.49-.81l7.06-1.52a.42.42,0,0,1,.54.53s0,.69-1.1,1.14L242.8,59.72a.69.69,0,0,1-.48.86L237,62.08a.7.7,0,0,1-.85-.48l-1-3.47a.7.7,0,0,0-.86-.48L194,69.08a.7.7,0,0,0-.48.86l1,3.65a.7.7,0,0,1-.48.85l-5.24,1.47a.69.69,0,0,1-.86-.48L175.69,32a.65.65,0,0,1,.49-.82l7-1.56c.37-.08.6.15.5.52a1.56,1.56,0,0,1-1.06,1.33l8.73,30.71a.69.69,0,0,0,.86.48L208,58.23a.69.69,0,0,0,.48-.86L195.31,10.94a.65.65,0,0,1,.49-.82L203,8.52c.37-.08.59.15.49.52,0,0,0,.69-1.13,1.22l12.8,45.23A.69.69,0,0,0,216,56l16.53-4.67a.7.7,0,0,0,.48-.85Z"/><path class="cls-1" d="M313.93,25.9a2.13,2.13,0,0,1-.63,0,3.19,3.19,0,0,1-1.56-.5c-20.92,4.27-38.37,11.05-38.84,19.14-.29,5.68,5.89,8.16,16.35,8.85a171.46,171.46,0,0,0,24.27-.1l.15,6.11a.68.68,0,0,1-.66.7s-13.3.33-24.44-.39c-13.36-.87-23.33-4.67-22.79-15.24.4-7.15,7.75-12.77,18.62-17.5-2.18-4.63-2.51-12.3-1.42-27l9.26,1.35a.42.42,0,0,1,.32.68,2.29,2.29,0,0,1-2,.88c-.84,10.54-1,17.51.46,21.43,6.31-2.28,20.28-6.1,20.28-6.1a.65.65,0,0,1,.81.48Z"/><path class="cls-1" d="M359,38.34a.69.69,0,0,1,.36.9l-7.55,18.45a4.61,4.61,0,0,0-.24,2.07s-1.16,6.91,19.13,15.15c7.25,2.94,17.86,6.82,24,9-1.31,1.13-4.45,3.83-5.55,5.5-4.5-1.71-11-4.35-17-6.92-14.54-6.21-22.79-9.75-25.95-19.91-4.13,1.32-8.35,2.53-11.78,3.42a1.12,1.12,0,0,1-1.27.85l-.37-7.21a.79.79,0,0,1,.64-.8s7.41-1.28,11.53-2.39l6.11-14.29a.68.68,0,0,0-.36-.9l-7.13-3a.69.69,0,0,1-.37-.9l1.81-4.21a.69.69,0,0,1,.9-.37Zm11.29-2.51a.69.69,0,0,1,.9-.36l9,3.83a.92.92,0,0,0,1-.28s1.58-2.13,2.53-3.48l-16-6.81a.69.69,0,0,1-.36-.9l1.54-3.6a.69.69,0,0,1,.9-.36l9.18,3.93c.34.15.59,0,.55-.41a68.27,68.27,0,0,0-1.27-7.48h4.84a.94.94,0,0,1,.86.66s1.7,6.46,1.54,9l-1.67,0c-.38,0-.4.13-.05.27L394,34.17c.35.15.41.05.14-.21l-.09-.09a.55.55,0,0,1,.08-.87,75.25,75.25,0,0,0,7.27-5.74l5.7,4.52c.3.23.25.52-.12.64a2,2,0,0,1-1.24-.22,52.1,52.1,0,0,1-7,4L409.89,41a.68.68,0,0,1,.36.9l-1.54,3.59a.68.68,0,0,1-.89.36L390.7,38.5a1.06,1.06,0,0,0-1.1.23s-1.89,2-3.17,3.23l14,6a.69.69,0,0,1,.37.9L388.26,78.25a.69.69,0,0,1-.9.36l-4.76-2a.67.67,0,0,1-.35-.89l.2-.49a.69.69,0,0,0-.36-.9l-17.44-7.44a.68.68,0,0,0-.9.36l-.2.48a.69.69,0,0,1-.9.36l-4.5-1.92a.69.69,0,0,1-.36-.9ZM360.15,11.46c3,4.42,6.12,10.48,7.06,14.49l-5.8,1.62a.76.76,0,0,1-.89-.46l-6-13.42a.52.52,0,0,1,.33-.79Zm6,50.06a.69.69,0,0,0,.36.9L384,69.88a.69.69,0,0,0,.9-.36l1.18-2.78a.69.69,0,0,0-.36-.9l-17.44-7.46a.69.69,0,0,0-.9.37Zm5.54-11.22a.68.68,0,0,0-.9.36l-1.19,2.77a.69.69,0,0,0,.36.9l17.43,7.46a.69.69,0,0,0,.9-.36l1.2-2.78a.69.69,0,0,0-.36-.9Zm19.15,3.46a.68.68,0,0,0,.9-.36l1.13-2.65a.68.68,0,0,0-.36-.9l-17.43-7.44a.69.69,0,0,0-.9.36l-1.13,2.65a.68.68,0,0,0,.36.9Z"/></svg>